Patient4_TMGait_0pt4_02_right_17_GRF.mot
version=1
nRows=64
nColumns=19
inDegrees=no
endheader
time	F1x	F1y	F1z	M1x	M1y	M1z	F2x	F2y	F2z	M2x	M2y	M2z	EC1x	EC1y	EC1z	EC2x	EC2y	EC2z
22.01	-17.6685	741.913	49.3175	-239.9367	-60.0061	824.8454	-7.1498	-23.9696	-0.85137	-3.3961	-0.52651	-24.8949	-0.0592	0.0182	-0.0073	-0.0462	0.0165	0.9585
22.0241	-12.3266	730.7581	51.8851	-236.4304	-59.9996	810.8512	-4.8325	-13.6286	-0.66304	-1.4458	-0.22964	-13.8646	-0.0592	0.0182	-0.0073	-0.0462	0.0165	0.9585
22.0383	-7.0799	720.6331	53.719	-233.0985	-59.3156	797.3814	-2.8227	-4.9123	-0.46523	0.19257	-0.01459	-4.6126	-0.0592	0.0182	-0.0073	-0.0462	0.0165	0.9585
22.0524	-2.3283	713.1294	54.7658	-230.4526	-58.078	786.2917	-1.2556	1.6983	-0.29089	1.435	0.12717	2.3677	-0.0592	0.0182	-0.0073	-0.0462	0.0165	0.9585
22.0666	1.6961	709.4403	55.1811	-228.9022	-56.5334	779.0392	-0.16712	6.2566	-0.1576	2.295	0.2231	7.1645	-0.0592	0.0182	-0.0073	-0.0462	0.0165	0.9585
22.0807	4.9442	710.1527	55.1589	-228.6735	-54.8991	776.3917	0.50976	9.0571	-0.067255	2.8256	0.29124	10.0985	-0.0592	0.0182	-0.0073	-0.0462	0.0165	0.9585
22.0949	7.4772	715.2071	54.9304	-229.7801	-53.3801	778.3741	0.85848	10.4847	-0.01642	3.0916	0.34815	11.5847	-0.0592	0.0182	-0.0073	-0.0462	0.0165	0.9585
22.109	9.4414	723.9701	54.6515	-232.0454	-52.0712	784.3435	0.95759	10.9151	0.007632	3.1527	0.39574	12.0263	-0.0592	0.0182	-0.0073	-0.0462	0.0165	0.9585
22.1231	11.0161	735.3717	54.4485	-235.1444	-51.0207	793.1635	0.91129	10.6337	0.0067362	3.0482	0.43678	11.6944	-0.0592	0.0182	-0.0073	-0.0462	0.0165	0.9585
22.1373	12.3692	748.1288	54.3718	-238.6741	-50.2054	803.471	0.77532	9.8552	-0.010212	2.804	0.47468	10.8003	-0.0592	0.0182	-0.0073	-0.0462	0.0165	0.9585
22.1514	13.6525	760.9052	54.44	-242.2056	-49.5825	813.8439	0.6072	8.686	-0.037149	2.4249	0.51117	9.4359	-0.0592	0.0182	-0.0073	-0.0462	0.0165	0.9585
22.1656	14.9482	772.4475	54.6515	-245.3259	-49.1115	822.9722	0.46252	7.1738	-0.0693	1.9084	0.54143	7.6384	-0.0592	0.0182	-0.0073	-0.0462	0.0165	0.9585
22.1797	16.2961	781.7241	54.981	-247.6869	-48.7499	829.7892	0.38334	5.3723	-0.1014	1.262	0.55102	5.4731	-0.0592	0.0182	-0.0073	-0.0462	0.0165	0.9585
22.1939	17.6857	787.9931	55.4052	-249.0321	-48.4757	833.5493	0.44742	3.3594	-0.11889	0.51372	0.49661	3.0246	-0.0592	0.0182	-0.0073	-0.0462	0.0165	0.9585
22.208	19.089	790.8357	55.917	-249.2118	-48.2943	833.8619	0.7173	1.3367	-0.10026	-0.25515	0.3218	0.54784	-0.0592	0.0182	-0.0073	-0.0462	0.0165	0.9585
22.2221	20.5069	790.2241	56.5306	-248.2113	-48.2242	830.7303	1.2706	-0.30139	-0.016124	-0.88409	-0.043202	-1.464	-0.0592	0.0182	-0.0073	-0.0462	0.0165	0.9585
22.2363	21.9524	786.5309	57.2629	-246.1542	-48.2815	824.5608	2.2012	-0.90582	0.17077	-1.1068	-0.67692	-2.2064	-0.0592	0.0182	-0.0073	-0.0462	0.0165	0.9585
22.2504	23.4935	780.4289	58.1132	-243.2713	-48.4496	816.0319	3.5492	0.48699	0.49138	-0.52936	-1.6349	-0.46475	-0.0592	0.0182	-0.0073	-0.0462	0.0165	0.9585
22.2646	25.2275	772.6929	59.0567	-239.8344	-48.6764	805.8973	5.3128	5.1492	0.96876	1.3701	-2.9418	5.3479	-0.0592	0.0182	-0.0073	-0.0462	0.0165	0.9585
22.2787	27.2456	763.9929	60.0365	-236.0873	-48.8793	794.8104	7.3795	14.6483	1.6057	5.2263	-4.5488	17.1843	-0.0592	0.0182	-0.0073	-0.0462	0.0165	0.9585
22.2929	29.6092	754.6758	60.9566	-232.1732	-48.9419	783.0893	9.4596	30.6498	2.3693	11.7089	-6.2882	37.1165	-0.0592	0.0182	-0.0073	-0.0462	0.0165	0.9585
22.307	32.2921	744.6274	61.7116	-228.0876	-48.7632	770.617	11.0191	54.5314	3.1656	21.3722	-7.8167	66.8586	-0.0592	0.0182	-0.0073	-0.0462	0.0165	0.9585
22.3211	35.1602	733.2101	62.1528	-223.6618	-48.2355	756.7671	11.1872	86.8121	3.812	34.4194	-8.5478	107.0668	-0.0592	0.0182	-0.0073	-0.0462	0.0165	0.9585
22.3353	37.9847	719.3316	62.1259	-218.5844	-47.2725	740.4738	8.7652	126.2686	3.9979	50.3502	-7.6122	156.2234	-0.0592	0.0182	-0.0073	-0.0462	0.0165	0.9585
22.3494	40.4962	701.7305	61.4416	-212.4907	-45.7726	720.5198	3.0061	169.5021	3.2441	67.7626	-4.1393	210.1626	-0.0592	0.0182	-0.0073	-0.0462	0.0165	0.9585
22.3636	42.4639	679.4251	59.9779	-205.0987	-43.6891	695.9624	-5.0583	211.3109	1.1815	84.5131	1.8727	262.4673	-0.0592	0.0182	-0.0073	-0.0462	0.0165	0.9585
22.3777	43.7695	652.1734	57.7749	-196.3428	-41.1028	666.5877	-13.0517	245.9433	-2.0852	98.291	9.2654	305.8284	-0.0592	0.0182	-0.0073	-0.0462	0.0165	0.9585
22.3919	44.4288	620.677	55.0237	-186.4329	-38.1991	633.1188	-19.3261	270.1465	-5.9152	107.8184	16.5732	336.0654	-0.0592	0.0182	-0.0073	-0.0462	0.0165	0.9585
22.406	44.5833	586.5041	51.9884	-175.8347	-35.1953	597.1249	-23.5109	284.4731	-9.6163	113.3667	22.8181	353.8433	-0.0592	0.0182	-0.0073	-0.0462	0.0165	0.9585
22.4201	44.4428	551.7635	48.8442	-165.1812	-32.2012	560.7236	-26.0284	292.3741	-12.762	116.3682	27.68	363.4956	-0.0592	0.0182	-0.0073	-0.0462	0.0165	0.9585
22.4343	44.2251	518.5203	45.6747	-155.0953	-29.2347	525.9879	-27.4919	298.3869	-15.0956	118.6876	31.1496	370.6341	-0.0592	0.0182	-0.0073	-0.0462	0.0165	0.9585
22.4484	44.0669	488.218	42.4327	-146.0103	-26.2171	494.3652	-28.366	306.5661	-16.6701	121.9766	33.5062	380.1959	-0.0592	0.0182	-0.0073	-0.0462	0.0165	0.9585
22.4626	43.9549	461.2325	39.0431	-138.0269	-23.0798	466.2399	-28.9836	319.7431	-17.6328	127.3701	35.0892	395.5844	-0.0592	0.0182	-0.0073	-0.0462	0.0165	0.9585
22.4767	43.7878	436.704	35.4721	-130.8609	-19.813	440.7401	-29.5232	339.3292	-18.3407	135.3991	36.3881	418.4616	-0.0592	0.0182	-0.0073	-0.0462	0.0165	0.9585
22.4909	43.3473	412.7798	31.7392	-123.9174	-16.4865	416.0176	-30.0115	365.2957	-19.1536	145.9927	37.8302	448.7069	-0.0592	0.0182	-0.0073	-0.0462	0.0165	0.9585
22.505	42.3376	387.0971	27.9303	-116.4421	-13.2589	389.7104	-30.3974	396.4341	-20.5371	158.5905	39.8909	484.7873	-0.0592	0.0182	-0.0073	-0.0462	0.0165	0.9585
22.5191	40.426	357.5515	24.1314	-107.7628	-10.3082	359.7052	-30.5922	431.0707	-22.8684	172.4487	42.9298	524.6289	-0.0592	0.0182	-0.0073	-0.0462	0.0165	0.9585
22.5333	37.2849	322.9694	20.4362	-97.4972	-7.82	324.8284	-30.5699	467.8508	-26.3862	186.9675	47.1716	566.5707	-0.0592	0.0182	-0.0073	-0.0462	0.0165	0.9585
22.5474	32.7571	283.4492	16.9142	-85.6678	-5.9154	285.154	-30.3418	506.1456	-31.1463	201.8625	52.651	609.8309	-0.0592	0.0182	-0.0073	-0.0462	0.0165	0.9585
22.5616	26.9316	240.3763	13.6496	-72.7017	-4.6525	242.035	-29.9359	545.9565	-36.9869	217.1348	59.178	654.4037	-0.0592	0.0182	-0.0073	-0.0462	0.0165	0.9585
22.5757	20.2321	196.0613	10.7349	-59.3146	-3.989	197.7216	-29.4235	587.3482	-43.6004	232.841	66.4268	700.4116	-0.0592	0.0182	-0.0073	-0.0462	0.0165	0.9585
22.5899	13.3631	153.1497	8.2397	-46.3253	-3.7733	154.7846	-28.8996	629.8197	-50.5158	248.8401	73.9164	747.3676	-0.0592	0.0182	-0.0073	-0.0462	0.0165	0.9585
22.604	7.0708	113.9565	6.1711	-34.4498	-3.7766	115.4933	-28.4815	672.0149	-57.2383	264.6604	81.1473	793.8291	-0.0592	0.0182	-0.0073	-0.0462	0.0165	0.9585
22.6181	1.9301	80.0623	4.4841	-24.1822	-3.7754	81.4166	-28.2806	711.885	-63.2863	279.553	87.6353	837.5645	-0.0592	0.0182	-0.0073	-0.0462	0.0165	0.9585
22.6323	-1.7647	52.3078	3.1174	-15.7834	-3.6197	53.4337	-28.3721	747.1434	-68.3089	292.6606	93.0209	876.0691	-0.0592	0.0182	-0.0073	-0.0462	0.0165	0.9585
22.6464	-3.8999	30.8815	2.0189	-9.3093	-3.2283	31.7835	-28.7736	775.6943	-72.0923	303.1821	97.0752	907.0325	-0.0592	0.0182	-0.0073	-0.0462	0.0165	0.9585
22.6606	-4.5848	15.4437	1.1556	-4.6537	-2.6078	16.142	-29.4283	795.9381	-74.5495	310.5014	99.6833	928.6694	-0.0592	0.0182	-0.0073	-0.0462	0.0165	0.9585
22.6747	-4.3025	5.3059	0.53092	-1.6026	-1.9104	5.8416	-30.1958	807.0172	-75.6805	314.2885	100.7947	939.9887	-0.0592	0.0182	-0.0073	-0.0462	0.0165	0.9585
22.6889	-3.5233	-0.55706	0.12236	0.15597	-1.2645	-0.137	-30.8718	808.9949	-75.5654	314.5694	100.4235	941.0017	-0.0592	0.0182	-0.0073	-0.0462	0.0165	0.9585
22.703	-2.5883	-3.291	-0.10966	0.96873	-0.73873	-2.9306	-31.2656	802.9218	-74.3862	311.7462	98.704	932.8182	-0.0592	0.0182	-0.0073	-0.0462	0.0165	0.9585
22.7171	-1.6966	-3.942	-0.21433	1.1522	-0.35127	-3.5989	-31.2465	790.6632	-72.4182	306.5299	95.9091	917.4675	-0.0592	0.0182	-0.0073	-0.0462	0.0165	0.9585
22.7313	-0.95404	-3.3721	-0.23709	0.96645	-0.090636	-3.0168	-30.7568	774.5618	-70.0112	299.8131	92.4253	897.529	-0.0592	0.0182	-0.0073	-0.0462	0.0165	0.9585
22.7454	-0.40176	-2.2172	-0.20569	0.60217	0.059872	-1.8242	-29.8008	757.1218	-67.5057	292.5518	88.6563	875.7653	-0.0592	0.0182	-0.0073	-0.0462	0.0165	0.9585
22.7596	-0.028677	-0.89874	-0.14724	0.18562	0.13086	-0.45597	-28.4183	740.7236	-65.2085	285.658	84.9792	854.8027	-0.0592	0.0182	-0.0073	-0.0462	0.0165	0.9585
22.7737	0.18319	0.32955	-0.07038	-0.20413	0.13511	0.82042	-26.6698	727.4004	-63.3398	279.9184	81.6806	836.8884	-0.0592	0.0182	-0.0073	-0.0462	0.0165	0.9585
22.7879	0.27236	1.334	0.0050746	-0.52364	0.096091	1.8505	-24.6207	718.6585	-62.0354	275.9276	78.9501	823.688	-0.0592	0.0182	-0.0073	-0.0462	0.0165	0.9585
22.802	0.26714	2.0424	0.080825	-0.74844	0.017077	2.5542	-22.3535	715.3472	-61.3274	274.0403	76.8629	816.1492	-0.0592	0.0182	-0.0073	-0.0462	0.0165	0.9585
22.8161	0.18899	2.4175	0.15362	-0.86322	-0.097072	2.8942	-19.951	717.6042	-61.1592	274.3466	75.394	814.4484	-0.0592	0.0182	-0.0073	-0.0462	0.0165	0.9585
22.8303	0.062373	2.4352	0.22576	-0.85629	-0.24049	2.8353	-17.4738	724.9015	-61.4085	276.6802	74.4335	818.0388	-0.0592	0.0182	-0.0073	-0.0462	0.0165	0.9585
22.8444	-0.09666	2.0718	0.30526	-0.71889	-0.41205	2.3389	-14.9615	736.1313	-61.9171	280.6407	73.8203	825.7512	-0.0592	0.0182	-0.0073	-0.0462	0.0165	0.9585
22.8586	-0.26574	1.2969	0.3847	-0.44073	-0.59306	1.3542	-12.4275	749.6967	-62.5466	285.6214	73.3977	835.8868	-0.0592	0.0182	-0.0073	-0.0462	0.0165	0.9585
22.8727	-0.41563	0.092709	0.46489	-0.014318	-0.76591	-0.15199	-9.8902	763.7019	-63.1917	290.881	73.0398	846.4421	-0.0592	0.0182	-0.0073	-0.0462	0.0165	0.9585
22.8869	-0.49664	-1.5099	0.52551	0.55071	-0.88693	-2.142	-7.3986	776.2198	-63.7922	295.6497	72.6716	855.4126	-0.0592	0.0182	-0.0073	-0.0462	0.0165	0.9585
22.901	-0.43984	-3.4087	0.54678	1.2184	-0.90262	-4.4878	-5.0322	785.5848	-64.3132	299.2518	72.261	861.1015	-0.0592	0.0182	-0.0073	-0.0462	0.0165	0.9585
